<?xml version="1.0" encoding="UTF-8"?>
<svg id="Logo_1" data-name="Logo 1" xmlns="http://www.w3.org/2000/svg" viewBox="0 0 177.07 176.98">
  <defs>
    <style>
      .cls-1 {
        fill: #4b6d9a;
      }
    </style>
  </defs>
  <path class="cls-1" d="M85.73.04c-18.75.58-37.14,7.26-52.35,19-4.01,3.1-11.97,11.05-15.03,15.03-7.04,9.08-12.81,20.57-15.58,31-.26.91-.58,2.12-.77,2.74-.18.58-.69,3.14-1.17,5.65-.73,4.01-.84,5.73-.84,14.59,0,10.94.33,14.01,2.37,22.29,5.33,21.48,19.3,40.78,38.42,53,3.94,2.52,12.55,7,12.88,6.71.07-.07-.36-1.31-.95-2.7-.58-1.42-1.53-4.3-2.08-6.38-.88-3.36-.99-4.49-.99-9.81,0-4.49.15-6.75.62-8.94,1.35-5.98,3.72-11.85,6.46-15.87,1.71-2.52,1.68-2.7-.91-3.1-.8-.15-2.77-.66-4.38-1.13-7.73-2.44-13.9-6.82-18.79-13.46-3.54-4.74-7.59-14.44-6.57-15.68.8-.95,1.31-.62,3.47,2.19,3.36,4.38,8.35,7.66,14.3,9.37,2.48.73,3.65.84,9.41.84,8.54-.04,11.78-.69,28.46-5.8,7.81-2.41,12.44-3.54,14.78-3.61,1.71-.07,2.01.04,2.01.58,0,.47-.88,1.17-2.74,2.15-8.28,4.52-16.16,12.11-20.14,19.44-4.85,8.97-6.82,17.47-6.38,27.54.22,4.41,1.06,9.59,2.01,12.04.4,1.02.36,1.06,1.2-2.55.91-4.12,3.79-9.99,6.79-13.93,5.25-6.89,10.91-11.96,24.59-21.99,15.76-11.56,22.18-18.2,26.38-27.25,2.85-6.09,4.01-11.49,4.01-18.53,0-6.13-.99-12.15-2.66-16.23-2.15-5.25-4.41-9.16-7.62-13.13-7.22-8.97-17.69-15.36-29.59-18.09-4.12-.95-13.13-1.31-18.2-.73-11.05,1.31-22.36,6.13-30.57,13.02-3.28,2.77-4.89,4.49-7.3,7.88-2.48,3.47-3.9,6.53-4.89,10.32-1.53,5.95-1.39,9.56.62,15.79,1.09,3.39.95,4.19-.8,4.38-2.33.29-7.33-6.93-8.83-12.69-1.31-5.22-.51-12.29,2.08-17.73,2.59-5.4,8.28-12.29,13.68-16.6,12.91-10.25,32.32-16.09,48.81-14.63,16.05,1.42,27.98,6.38,37.03,15.36,7.41,7.37,11.78,16.85,14.19,30.68.58,3.36,1.24,5.51,2.7,8.72,1.75,3.76,3.25,5.54,8.06,9.45,4.23,3.5,5.76,6.46,5.03,9.67-.4,1.86-1.24,2.74-3.65,3.79-4.12,1.86-4.71,3.54-2.01,5.73,2.08,1.71,2.15,2.7.29,4.12-.77.55-1.5,1.17-1.64,1.39-.51.69-.29,1.75.62,2.95,1.64,2.15,1.02,3.9-1.9,5.4-1.57.8-2.66,2.01-2.66,2.95,0,.44.69,1.86,1.53,3.14,1.24,1.86,1.53,2.66,1.57,4.01,0,2.15-1.46,4.12-3.79,5.18-2.26.98-8.94,1.42-17.37,1.13-8.94-.29-12.44.36-19.34,3.68-8.94,4.3-15.76,11.93-18.79,20.97-.44,1.31-1.06,4.23-1.39,6.49-.51,3.79-.51,4.52,0,8.57.33,2.44.91,5.36,1.28,6.46l.66,2.01,2.37.11c6.9.36,19.59-2.22,29-5.87,18.17-7.04,34.33-20.75,44.25-37.57,6.31-10.65,10.25-22.4,11.78-34.98.55-4.67.22-18.6-.55-23.45-2.23-13.86-7.55-26.88-15.47-37.93-3.25-4.52-5.4-7.04-9.7-11.31-11.16-11.12-24.92-18.97-40.31-22.98C103.17.88,93.65-.22,85.73.04ZM100.51,35.53c8.43,2.77,14.92,10.54,14.96,17.87,0,2.48-.44,2.7-2.88,1.46-3.58-1.82-4.89-2.26-7.73-2.44-3.79-.29-3.98.26-.62,1.86,4.85,2.3,8.25,6.75,9.05,11.82,1.2,7.4-3.98,15.17-11.38,17.07-6.46,1.68-12.81-.88-17.22-6.89-.55-.73-1.13-1.35-1.35-1.35-.47,0-.4,2.7.11,3.9,1.13,2.59,2.44,4.01,5,5.36,1.42.73,2.59,1.53,2.59,1.71,0,.55-1.75,2.08-4.01,3.5-5.18,3.36-11.86,5.22-18.68,5.22-5.69,0-11.09-1.5-12.7-3.57-1.46-1.82-.84-2.66,2.88-3.94,2.7-.95,4.82-2.92,5.98-5.54.99-2.12.99-3.36.11-3.36-.26,0-1.28.58-2.26,1.28-2.52,1.79-5.11,2.48-8.9,2.3-2.41-.07-3.5-.33-4.85-1.02-2.48-1.24-5.07-3.94-6.42-6.6-1.53-3.06-1.61-6.49-.18-9.3,1.86-3.65,6.42-7.4,8.39-6.93.51.15,1.71.98,2.66,1.86,2.3,2.15,5.51,3.5,5.51,2.3,0-.22-.4-.95-.91-1.6-2.66-3.47-3.06-7.33-1.28-11.38,1.28-2.77,2.92-4.63,5.84-6.6,4.63-3.14,8.83-3.61,10.51-1.2.4.55.91,1.97,1.13,3.17.26,1.2.58,2.99.8,3.94.33,1.79,1.5,3.72,1.93,3.28.11-.11.22-.69.22-1.24,0-1.46,1.57-5.4,3.03-7.7,2.12-3.32,5.76-6.24,9.41-7.59,2.52-.95,7.7-.8,11.27.36Z"/>
</svg>