<?xml version="1.0" encoding="UTF-8"?>
<svg id="Layer_1" xmlns="http://www.w3.org/2000/svg" version="1.1" viewBox="0 0 368.61 206.15">
  <!-- Generator: Adobe Illustrator 30.1.0, SVG Export Plug-In . SVG Version: 2.1.1 Build 136)  -->
  <defs>
    <style>
      .st0 {
        fill: #ffb9a4;
      }

      .st1 {
        fill: #e2b39f;
      }

      .st2 {
        fill: #8eaaef;
      }

      .st3 {
        fill: #677dce;
      }

      .st4 {
        fill: #d5a373;
      }

      .st5 {
        fill: #3a2832;
      }

      .st6 {
        fill: #f4d4c3;
      }

      .st7 {
        fill: #30202c;
      }

      .st8 {
        fill: #ba8f65;
      }

      .st9 {
        fill: #fff;
      }

      .st10 {
        fill: #3c4c99;
      }

      .st11 {
        fill: #fa4146;
      }

      .st12 {
        fill: #c6a597;
      }

      .st13 {
        fill: #cc9b72;
      }

      .st14 {
        fill: #c5cc33;
      }

      .st15 {
        fill: #7e97e0;
      }

      .st16 {
        fill: #4b57aa;
      }

      .st17 {
        fill: #2a3f8c;
      }

      .st18 {
        fill: #2b1822;
      }

      .st19 {
        fill: #adbc2b;
      }

      .st20 {
        fill: #a3aa22;
      }

      .st21 {
        fill: #ffc9b6;
      }

      .st22 {
        fill: #ffe8de;
      }
    </style>
  </defs>
  <g>
    <g>
      <path class="st12" d="M161.79,118.42v1.88c0,5.42,8.26,9.82,18.46,9.82s18.46-4.4,18.46-9.82v-1.88h-36.92Z"/>
      <path class="st6" d="M180.25,108.26c-10.19,0-18.46,4.4-18.46,9.82s8.26,9.82,18.46,9.82,18.46-4.4,18.46-9.82c0-5.42-8.26-9.82-18.46-9.82Z"/>
    </g>
    <path class="st18" d="M173.93,96.08v20.99c0,1.85,2.83,3.36,6.32,3.36s6.32-1.5,6.32-3.36v-20.99h-12.63Z"/>
    <g>
      <path class="st12" d="M145.12,78.39v5.67c0,10.32,15.73,18.68,35.12,18.68s35.13-8.37,35.13-18.68v-5.67h-70.25Z"/>
      <path class="st6" d="M145.12,76.89v3.57c0,10.32,15.73,18.68,35.12,18.68s35.13-8.37,35.13-18.68v-3.57h-70.25Z"/>
      <path class="st22" d="M180.25,57.55c-19.4,0-35.12,8.37-35.12,18.69s15.73,18.68,35.12,18.68,35.13-8.37,35.13-18.68-15.73-18.69-35.13-18.69Z"/>
    </g>
  </g>
  <g>
    <g>
      <polygon class="st5" points="92.4 176.84 97.09 174.13 97.09 140.69 92.4 143.4 92.4 176.84"/>
      <polygon class="st18" points="92.4 176.84 90.05 175.49 87.71 140.69 92.4 143.4 92.4 176.84"/>
    </g>
    <g>
      <polygon class="st5" points="46.11 149.95 50.8 147.24 55.49 117.62 50.8 120.33 46.11 149.95"/>
      <polygon class="st18" points="46.11 149.95 44.07 148.7 46.11 117.62 50.8 120.33 46.11 149.95"/>
    </g>
    <g>
      <polygon class="st5" points="143.07 147.23 147.76 144.52 147.76 111.08 143.07 113.79 143.07 147.23"/>
      <polygon class="st18" points="143.07 147.23 140.72 145.88 138.38 111.08 143.07 113.79 143.07 147.23"/>
    </g>
    <g>
      <polygon class="st5" points="96.78 120.34 101.47 117.63 106.16 88.01 101.47 90.72 96.78 120.34"/>
      <polygon class="st18" points="96.78 120.34 94.74 119.09 96.78 88.01 101.47 90.72 96.78 120.34"/>
    </g>
    <g>
      <path class="st15" d="M101.29,61.7l5.93-3.45c.33-.3.81-.34,1.35-.03l39.81,22.99c1,.58,1.82,2.13,1.82,3.47v33.92c0,.82-.31,1.36-.77,1.53l.02.06-6.03,3.48-3.47-5.23.45-3.09-31.82-18.37c-1-.58-1.82-2.13-1.82-3.47v-26.26l-4.48-1.49-.97-4.06Z"/>
      <path class="st3" d="M102.6,100.46l39.81,22.99c1,.58,1.82-.04,1.82-1.37v-33.92c0-1.34-.81-2.89-1.82-3.47l-39.81-22.99c-1-.58-1.81.04-1.81,1.37v33.92c0,1.33.81,2.89,1.81,3.47Z"/>
    </g>
    <g>
      <g>
        <path class="st15" d="M47.05,109.43l42.79-24.88c1.06-1.01,2.62-1.15,4.35-.15l41.53,23.98-54.37,31.39-34.3-30.34Z"/>
        <path class="st2" d="M81.35,139.77l54.37-31.39,2.74,1.58c2.86,1.65,5.24,5.84,5.68,9.76l-51.71,29.85-11.08-9.8Z"/>
        <path class="st15" d="M144.22,125.03c0,2.39-.83,4.06-2.13,4.73l-43.53,25.24-6.14-5.43,51.71-29.85c.05.43.09.86.09,1.28v4.04h0Z"/>
      </g>
      <path class="st3" d="M51.25,128.86l44.26,25.55c3.18,1.83,5.77-.13,5.77-4.37v-4.04c0-4.24-2.6-9.2-5.77-11.03l-44.26-25.56c-3.18-1.83-5.78.13-5.78,4.37v4.04c0,4.24,2.6,9.2,5.78,11.04Z"/>
    </g>
    <g>
      <path class="st2" d="M90.71,33.6s4.26,2.46,6.6,3.81c3.6,2.08,7.54,11.94,7.54,22.21v30.13l-43.66,24.85-14.14-56.15,43.66-24.85Z"/>
      <path class="st3" d="M53.65,62.25c3.6,2.08,7.54,11.94,7.54,22.21v30.13l-14.14-8.16v-47.99s4.26,2.46,6.6,3.81Z"/>
    </g>
    <g>
      <path class="st21" d="M109.33,57.03s4.53,3.91,7.33,9.68c1.65,3.41,5.3,8.21,7.6,11.24,1.26-1.34,7.39-7.88,10.24-11.23,2.62-3.09,4.38-2.57,6.91-3.09,2.62-.54,2.4-2.89,5.09-3.03,2.69-.14,2.23,1.16,0,4.11-1.38,1.83-3.28,3.47-4.48,3.79-2.53.69-4.98.54-5.71,2.84-.45,1.43-4.87,11.33-7.1,12.85-2.95,2.02-3.07,2.68-5.34,2.54-1.6-.1-2.96-1.74-3.64-2.54-2.15-2.47-4.8-4.96-6.73-7.72-2.64-3.77-8.1-13.83-8.31-14.2-.21-.37,4.15-5.25,4.15-5.25Z"/>
      <path class="st22" d="M108.82,56.18s2.75.65,5.3,3.54c2.55,2.88,7.54,11.66,7.54,11.66,0,0-2.33,3.57-3.45,4.32-1.12.76-3.98,2.41-3.98,2.41l-9.68-14.5,4.26-7.44Z"/>
      <path class="st18" d="M133.34,150.36c1.34,1.48,2.85,3.14,4.23,4.6,1.87,1.97,4.06,4.06,6.08,5.86,2.47,2.21,2.66,4.88-1.39,4.66-6.56-.37-8.09-3.12-11.13-5.44-.42-.32-1.12.46-2.79-.21-2.11-.85-2.36-1.18-2.36-3.28,0-1.33.22-4.08.83-5.46-.02-.02-.04-.04-.06-.07-.32-.37,4.8-2.63,6.59-.65Z"/>
      <path class="st18" d="M120.69,164.53c1.34,1.48,2.85,3.14,4.23,4.6,1.87,1.97,4.06,4.06,6.08,5.86,2.47,2.21,2.66,4.88-1.39,4.66-6.56-.37-8.09-3.12-11.13-5.44-.42-.32-1.12.46-2.79-.21-2.11-.85-2.36-1.18-2.36-3.28,0-1.33.22-4.08.83-5.46-.02-.02-.04-.04-.06-.07-.32-.37,4.8-2.63,6.59-.65Z"/>
      <path class="st18" d="M93.15,101.16c.54-1.15,13.13-5.34,12.79-5.19,10.07,3.8,22.3,8.01,30.76,15.29,1.55.26,3.14.78,3.06,3.65-.06,2.23-1.37,6.08-1.73,8.33-1.28,7.82-2.92,20.5-3.52,28.4-1.33,2.37-5.26,2.37-7.76.59-.76-5.66-1.04-13.27-2.01-17.81-1.28-5.99.82-8.9,2.65-12.11-4.95.19-15.68-5.38-20.49-6.72-5.83-1.63-7.43-1.67-11.76-6.11-2.97-3.04-4.01-4.08-2-8.33Z"/>
      <path class="st5" d="M93.64,101.97c3.11.07,6.57.3,9.63-.62.3.44.61.87.86,1.38,1.11,2.26,2.15,3.97,1.29,6.55,1.51,2.14,8.34,10.52,9.56,13.09,1.57,1.56,2.42,2.46,2.22,6.05-.22,4.08.05,5.95.52,10.48.89,8.72,2.44,16.09,3.07,24.83-2.03,3.12-4.75,3.25-7.44.79-2.62-8.11-7.73-13.78-8.26-20.88-.35-4.7-.43-8.24,1.66-11.23-8.63-4.74-19.68-7.4-24.42-16.4-3.07-5.84-1.59-10.17,1.57-16.16,2.88,1.76,6.21,2.02,9.75,2.1Z"/>
      <path class="st4" d="M110.47,60.12c-3.52-4.47-2.05-3.18-6.32-.74-5.23,2.99-9.45,4.88-11.73,6.78-3.88,3.23-6.13,9.88-6.79,18.24-.1,1.27-.86,5.59-1.32,6.87-1.61,4.57-.82,5.32.32,6.39-1.69,0-2.49,2.41-1.24,3.29,7.99,5.62,23.31,5.7,25.48-3.65.14-.59-.46-2.39-.84-2.87.97-.55,1.45-2.47,1.45-3.73,1.79-.97,2.18-2.47,2.59-5.01,3.59-.81,7.35-4.82,5.64-8.97-1.39-3.38-1.87-6.42-2.88-8.74-2.33-5.35-3.36-6.6-4.37-7.87Z"/>
      <path class="st0" d="M108.99,62.59c-.98-.16-3.55-1.47-2.79-6.24.21-1.33-5.79-4.92-5.78-4.73.06,4.32-.99,9-2.97,11.24,2.85,2.98,5.53,9.77,10.45,7.34,2.46-1.21,3.03-2.11,1.09-7.61Z"/>
      <path class="st9" d="M110.58,59.45s1.91,5.26,2.57,6.99,1.9,4.99,1.9,4.99c0,0-1.84-.82-2.77-.32-.93.5-2.23,1.96-3.03,2.18-.8.23-1.86.06-1.86.06l-.64-2.2s1.67-.52,1.65-3.35c-.02-2.83-.48-6.65-.48-6.65l2.64-1.7Z"/>
      <path class="st9" d="M99.68,58.44s.05,1.8,1.55,4.39,4.98,5.58,6.59,6.87c2.35,1.88.97,5.3.97,5.3,0,0-.89-1.97-1.97-1.62s-1.64,1.34-2.88,2.49c-.99-1.49-1.47-2.77-3.65-4.92-1.73-1.7-4.96-5.45-4.18-8.56.79-3.12,3.57-3.95,3.57-3.95Z"/>
      <path class="st18" d="M113.92,52.32c.05-.09.11-.16.17-.21-.04-.04-.08-.08-.12-.13-.04-.05,0-.13.07-.11.14.03.27.1.41.15.1.01.2.04.28.1,2.44.99,4.76,4.08,3.83,6.68-.43,1.2-1.5,1.65-2.71,1.47,0,0-.02,0-.03,0,.85,2.76-.19,6.09-3.5,4.79-2.21-.87-2.75-3.64-2.68-5.76.09-3.01,2.97-4.43,4.28-6.96Z"/>
      <path class="st21" d="M113.26,45.78c-4.07-.91-6.19-1.08-9.8.38-2.03.55-3.94,1.46-5.77,2.66-.14.09-.25.29-.22.46.93,5.36,2.73,11.04,8.74,13.41,4.94,1.96,7.72-3.47,8.58-7.11,1-4.24,1.3-9.17-1.51-9.81Z"/>
      <path class="st21" d="M103.75,54.21s-.97-3.29-3.12-1.6c-2.14,1.69.89,5.02.89,5.02l2.22-3.42Z"/>
      <path class="st8" d="M99.26,95.12s-4.85-1.57-7.47-1.26-4.87,1.26-4.87,1.26c0,0,3.7.52,6.17.63,2.47.1,6.17-.63,6.17-.63Z"/>
      <path class="st21" d="M139.1,65.44s.99-1.68,1.87-3.62c.59-1.32.36-2.54-.36-2.72-.72-.18-.73,1.45-1.51,2.18-.78.73-3.8,3.27-3.32,4.59.48,1.32,3.32-.43,3.32-.43Z"/>
      <g>
        <polygon class="st9" points="109.73 110.48 108.13 109.15 115.53 90.25 117.14 91.59 109.73 110.48"/>
        <polygon class="st9" points="119.2 105.13 117.6 103.8 125.01 84.9 126.61 86.23 119.2 105.13"/>
        <polygon class="st22" points="115.53 90.25 125.01 84.9 126.61 86.23 117.14 91.59 115.53 90.25"/>
        <polygon class="st6" points="109.73 110.48 119.2 105.13 126.61 86.23 117.14 91.59 109.73 110.48"/>
        <g>
          <path class="st1" d="M118.73,92.07c-.13.21-.36.31-.51.22-.15-.09-.16-.34-.02-.55.13-.21.36-.31.51-.22.15.09.16.34.02.55Z"/>
          <path class="st11" d="M118.11,92.07c0-.08.06-.34.13-.39.09.03.32-.01.36-.04.55-.3.75-1.21.45-2.13-.16-.5-.44-.92-.79-1.19-.33-.25-.68-.34-.98-.24-.5.16-.78.81-.72,1.58-.14.07-.34.2-.35.18-.01-.02-.02-.05-.02-.08-.11-1,.28-1.82.98-2.04.43-.13.9-.03,1.33.3.41.32.74.8.92,1.37.38,1.2,0,2.39-.85,2.67-.02,0-.31.07-.46,0Z"/>
        </g>
        <g>
          <path class="st1" d="M120.66,90.99c-.13.21-.36.31-.51.22-.15-.09-.16-.34-.02-.55.13-.21.36-.31.51-.22.15.09.16.34.02.55Z"/>
          <path class="st11" d="M120.04,90.99c0-.08.06-.34.13-.39.09.03.32-.01.36-.04.55-.3.75-1.21.45-2.13-.16-.5-.44-.92-.79-1.19-.33-.25-.68-.34-.98-.24-.5.16-.79.8-.73,1.56-.14.07-.25.15-.34.19-.01-.02-.02-.05-.02-.07-.11-1,.28-1.82.98-2.04.43-.13.9-.03,1.33.3.41.32.74.8.92,1.37.38,1.2,0,2.39-.85,2.67-.02,0-.31.07-.47,0Z"/>
        </g>
        <g>
          <path class="st1" d="M122.58,89.89c-.13.21-.36.31-.51.22-.15-.09-.16-.34-.02-.55.13-.21.36-.31.51-.22.15.09.15.34.02.55Z"/>
          <path class="st11" d="M121.96,89.89c0-.08.06-.34.13-.39.09.03.32-.01.36-.04.55-.3.75-1.21.45-2.13-.16-.5-.44-.92-.79-1.19-.33-.25-.68-.34-.98-.24-.5.16-.79.8-.73,1.56-.14.07-.25.15-.34.19-.01-.02-.02-.05-.02-.07-.11-1,.28-1.82.98-2.04.43-.13.9-.03,1.33.3.41.32.74.8.92,1.37.38,1.2,0,2.39-.85,2.67-.02,0-.31.07-.46,0Z"/>
        </g>
        <g>
          <path class="st1" d="M124.51,88.77c-.13.21-.36.31-.51.22-.15-.09-.16-.34-.02-.55.13-.21.36-.31.51-.22.15.09.16.34.02.55Z"/>
          <path class="st11" d="M123.89,88.77c0-.08.06-.34.13-.39.09.03.32-.01.36-.04.55-.3.75-1.21.45-2.13-.16-.5-.44-.92-.79-1.19-.33-.25-.68-.34-.98-.24-.5.16-.79.8-.73,1.56-.14.07-.25.15-.34.19-.01-.02-.02-.04-.02-.07-.11-1,.28-1.82.98-2.04.43-.13.9-.03,1.33.3.41.32.74.8.92,1.37.38,1.2,0,2.39-.85,2.67-.02,0-.31.07-.47,0Z"/>
        </g>
      </g>
      <path class="st21" d="M111.91,99.49c-1,.19-1.18,0-3.1.25-1.5.2-2.6,1.79-3.12,1.68-1.28-.28-9.65-3.63-12.61-4.43-2.56-.75-5.4.87-6.31,3.21.51,1.07.96,2.04,3.23,2.8,2.04.69,13.73,2.09,15.18,2.71,2.68,1.15,3.56,2.26,6.31,2.41,3.34.19,6.96-2.37,6.75-4.16-.21-1.79-3.12-.67-4.81-.86-1.65-.19-2.55-1.21-2.28-1.75.46-.93.48-1.15.76-1.86Z"/>
      <path class="st21" d="M86.78,100.21c2.26-1.14,4.76-1.9,7.2-2.41.07-1.99.25-7.29.26-9.68.02-2.97,0-6.02,0-6.02,0,0-7.2-4.07-8.46-.68s.56,11.95.56,15.2c0,1.67.13,2.51.43,3.6Z"/>
      <path class="st22" d="M91.9,68.9c2.63.95,3.86,4.74,4,9.48s.07,11.44.07,11.44c0,0-2.7,1.67-6.29,1.67-3.77,0-5.66-2.01-5.66-2.01,0,0,.58-13.06,1.94-16.7,1.36-3.65,3.68-4.7,5.93-3.88Z"/>
      <path class="st18" d="M90.74,52.71c.34-1.36,1.53-3.12,2.99-4.04-.45-.93-.3-2.03.21-2.95.75-1.35,3.12-3.42,5.1-3.45-.5-.95-.8-1.99-.38-3.04.46-1.15,1.63-1.72,2.79-1.92,1.77-.3,3.73-.02,4.81,1.28.64-1.28,2.41-2.17,3.73-1.53.6.29,1.06.92,1.18,1.57.93-.76,2.29-.97,3.15.1.49.6.4,1.23.05,1.77,1.96-.2,4.28.36,4.68,2.1.23.99-.19,1.83-.9,2.45,1.48,1.09,2.31,2.86.86,4.47-1.7,1.89-5.49,1.52-7.44-.19-.58,2.26-2.34,4.33-4.69,4.56-.9.09-1.96-.33-2.76-.98-.44.75-1.02,1.46-1.68,2.06.8,1.23,1.15,2.77,1,4.2-.11.98-.7,2.32-1.59,2.91,1.83,1.74,2.81,4.14,2.07,6.71-.6,2.07-3.07,3.67-6.33,1.57-1.57-1.01-2.85-4.52-2.3-5.9-1.24.36-2.74-.44-3.1-1.88-.29-1.16.1-2.62.88-3.76-2.08-.88-2.8-4.13-2.3-6.09Z"/>
    </g>
    <g>
      <path class="st15" d="M44.57,94.53l5.93-3.45c.33-.3.81-.34,1.35-.03l39.81,22.99c1,.58,1.82,2.13,1.82,3.47v33.92c0,.82-.31,1.36-.77,1.53l.02.06-6.03,3.48-3.47-5.23.45-3.09-31.82-18.37c-1-.58-1.82-2.13-1.82-3.47v-26.26l-4.48-1.49-.97-4.06Z"/>
      <path class="st3" d="M45.89,133.3l39.81,22.99c1,.58,1.81-.04,1.81-1.37v-33.92c0-1.34-.81-2.89-1.81-3.47l-39.81-22.99c-1-.58-1.82.04-1.82,1.37v33.92c0,1.34.81,2.89,1.81,3.47Z"/>
    </g>
  </g>
  <g>
    <g>
      <polygon class="st5" points="220.53 203.24 215.84 200.54 215.84 167.1 220.53 169.8 220.53 203.24"/>
      <polygon class="st18" points="220.53 203.24 222.88 201.89 225.22 167.1 220.53 169.8 220.53 203.24"/>
    </g>
    <g>
      <polygon class="st5" points="317.5 146.81 312.81 144.1 308.12 114.48 312.81 117.18 317.5 146.81"/>
      <polygon class="st18" points="317.5 146.81 319.54 145.56 317.5 114.48 312.81 117.18 317.5 146.81"/>
    </g>
    <g>
      <polygon class="st5" points="177.9 178.62 173.21 175.92 173.21 142.48 177.9 145.18 177.9 178.62"/>
      <polygon class="st18" points="177.9 178.62 180.25 177.27 182.59 142.48 177.9 145.18 177.9 178.62"/>
    </g>
    <g>
      <polygon class="st5" points="274.87 122.19 270.18 119.48 265.49 89.86 270.18 92.56 274.87 122.19"/>
      <polygon class="st18" points="274.87 122.19 276.91 120.94 274.87 89.86 270.18 92.56 274.87 122.19"/>
    </g>
    <g>
      <g>
        <path class="st16" d="M309.53,16.57l-.11.18c-1.8-.57-4.29.07-7.5,4-.49.6-1,1.28-1.52,2.05-9.7,14.16-25.25,37.61-31.81,47.06-.3.43-.59.84-.85,1.21-7.03,9.99,0,17,0,17l52.08,30.26,8.3-14.1,30.04-51.01,3.77-6.4-52.4-30.26Z"/>
        <path class="st10" d="M267.74,71.07c-7.03,9.99,0,17,0,17l52.08,30.26,8.3-14.1-59.54-34.38c-.3.43-.59.84-.85,1.21Z"/>
        <path class="st10" d="M361.93,46.82l-52.4-30.25-.11.18c-1.8-.57-4.29.07-7.5,4l56.24,32.47,3.77-6.4Z"/>
        <path class="st17" d="M319.82,118.33l45.32-67.56s-4.06-10.26-12.66,2.29c-10.15,14.8-26.69,39.78-32.66,48.27-7.03,9.99,0,17,0,17Z"/>
      </g>
      <g>
        <g>
          <path class="st16" d="M318.28,108.75l-51.55-29.69c-1.3-1.07-3.14-1.15-5.18.03l-83.33,48.35c-1.12.65-2.18,1.61-3.13,2.77l60.95,35.19,82.24-56.65Z"/>
          <path class="st10" d="M171.04,145.68l51.11,29.28,13.88-9.56-60.95-35.19c-2.39,2.93-4.04,7.14-4.04,10.92v4.55Z"/>
        </g>
        <path class="st17" d="M319.82,118.33l-97.67,56.62v-4.55c0-5.28,3.21-11.41,7.17-13.7l83.33-48.35c3.96-2.29,7.17.14,7.17,5.42v4.55Z"/>
      </g>
    </g>
  </g>
  <g>
    <path class="st4" d="M306.25,43.59s-4.82-.95-9.88,1.37c-5.06,2.32-13.29,12.53-13.29,12.53,0,0-9.96-8-14.55-11.12-4.6-3.12-7.47-3.5-9.19-.43-1.72,3.06-.54,5.11,5.28,11.55,5.82,6.45,10.65,13,19.34,10.49,8.69-2.51,25.54-18.71,25.54-18.71l-3.26-5.67Z"/>
    <path class="st6" d="M271.72,79.22c-9.94,4.4-23.86,11.78-34.4,18.25-10.54,6.48-31.93,27.57-31.93,27.57l10.25,6.71s20.19-11.98,27.35-16.82c7.16-4.85,19.22-9.6,24.49-12.59,5.27-2.99,19.26-14.65,19.26-14.65,0,0-7.92-7.54-15.02-8.47Z"/>
    <path class="st22" d="M282.57,85.58c-1.22.19-7.83,2.12-21.71,9.86-3.41,1.9-10.98,6.97-15.21,10.05-15.7,11.44-30.03,26.26-30.03,26.26l6.55,9.16s26.84-9.89,34.42-20.49c8.01-2.09,22.81-3.93,31.67-11.18,7.85-1.74,9.78-4.08,11.42-9.6-2.98-7.83-17.12-14.06-17.12-14.06Z"/>
    <path class="st8" d="M309.89,46.82c-2.76-1.98-4.17-3.46-10.19,1.41-4.88,3.93-11.33,11.13-13.45,16.1-.5,1.17-4.17,8.3-11.97,10-2.65.58-2.55,3.91-2.55,4.9,2.97,2.38,8.9,5.36,12.32,9.41,5.9,6.99,10.68,8.87,15.32,12.64,4.89-1.9,7.23-4.45,9.96-7.9,4.7-5.96,8.34-13.69,11.95-20.63,2.66-5.11,7.19-13.41-1.89-19.54-2.83-5.15-6.18-4.02-9.48-6.38Z"/>
    <path class="st0" d="M307.67,45.58s-.5,3.64-3.08,8.89c-.59,3.88.77,6.64,5.1,3.89s8.72-6.75,8.72-6.75l.26-5.71-11.01-.33Z"/>
    <path class="st4" d="M318.68,48.96c-.81,2.06-2.24,3.57-4.4,4.93-2.93,1.85-4.26,1.27-6.83,1.53-2.68.27-3.9,1.32-4.65,3.85,1.05-.15,1.24-.67,2.01.35.51.68.3,1.45.34,2.17.05,1.01,1.1,1.85,2.55,1.61-.46-2.88,5.78-4.32,7.36-4.81,1.44-.45,5-2.71,5.48-4.4.67-2.39-.48-4.29-1.85-5.23Z"/>
    <path class="st4" d="M306.4,47.39s-2.6,2.44-3.85,3.91-1.18,3.21-2.21,3.91c-1.03.7-2.01.92-2.01.92,0,0,1.91.57,2.6.26s1.54-.45,1.71-.24c.17.21,1.42,1.75,1.53,1.57.11-.18,2.19-1.05,2.19-1.05,0,0-.98-1.84-.35-3.95.64-2.11,1.94-4.02,1.94-4.02l-1.55-1.31Z"/>
    <path class="st21" d="M323.86,37.23c.17-3.35-8.1-8.15-11.5-7.83-5.12.47-7.42,6.59-8.5,11.2-1.13,4.85.53,11.69,8.12,9.81,6.16-1.53,11.55-6.64,11.87-13.17Z"/>
    <path class="st18" d="M325,35.92c.87-1.75.36-3.91-1.04-5.47-1.29-1.43-3.14-2.09-4.95-2.57-1.61-.42-2.31-.29-3.56-1.48-1.34-1.27-.91-1.74-1.38-3.35-1.43-4.96-7.04-1.1-7.21,3.17-.5-.25-1.06-.29-1.67.04-1.43.79-1.21,2.65-.52,3.84,1.15,1.98,3.28,3.48,5.55,4.01.6,3.99,5.03,4.52,6.69,3.99-.8,2.81,1.27,6.62,1.56,10.13,1.42-1.43,6.96-3.11,7.99-7.28.39-1.58-.07-3.94-1.45-5.02Z"/>
    <path class="st21" d="M316.39,41.89s2.37-1.7,3.04.46c.58,1.9-.39,3.86-2.75,3.56-2.07-.26-.28-4.02-.28-4.02Z"/>
    <path class="st9" d="M301.04,59.21c-.65-1.15.21-2.93.21-2.93,0,0,.45-.07,1.03-.21.46-.11.64.43.64.43,0,0-.58,1.8-.62,2.64,0,0,1.18-.21,1.7-.28,1.41-.19,1.09,1.39,1.09,1.39,0,0-1.21.18-2.2.23-.22.57-.54,1.19-.93,1.82-.34.55-1,.73-1.47.42-.74-.49-.79-1.2-.5-1.96.14-.39.66-.99,1.05-1.54Z"/>
    <path class="st9" d="M299.98,60.74s-5.41,7.79-19.23,14.88c-1.83,2.82-1.97,5.22-1.97,5.22l6.16-1.03s6.61-2.23,11.43-6.68c3.22-2.96,5.58-10.84,5.58-10.84l-1.97-1.54Z"/>
    <path class="st21" d="M280.61,79.26s-2.65-1.63-8.93-1.21c-6.28.41-7.94,2.27-7.9,4.71.02,1.41,5.75,3.22,8.39,2.66,2.64-.56,8.24-1.57,8.24-1.57l.2-4.59Z"/>
    <path class="st4" d="M324.34,57.54c-5.59-.97-10.92,10.79-11.64,14.46-3.29,3.52-8.68,10.8-8.68,10.8,0,0-10.77-2.13-15.58-3.16-4.82-1.03-9.51-4.05-11.68,2.87-1.62,5.17,14.93,12.57,23.94,13.88,9.01,1.31,18.06-4.12,23.64-16.13,3.76-8.07,6.61-18.63,0-22.73Z"/>
    <path class="st21" d="M264.62,45.52s-2.3-4.08-4.77-5.47-5.44-2.55-6.07-2.61c-.9-.09-1.51.79-.2,1.55.78.45,1.82,1.38,1.92,1.9.23,1.16-2.29,1.16-4.65.65-2.36-.51-4.62-2.4-5.84-1.49-1.22.91-.06,5.53,4.82,7.35,3.95,1.47,7.42-.56,9.05.38.61.35,1.37,1.11,2.3,1.18,1.55.11,3.28-.94,3.44-3.44Z"/>
    <g>
      <path class="st7" d="M209.55,125.98c-2.27-2.72-7.11-7.86-11.17-8.73-4.05-.87-3.3,4.15-1.34,10.76,1.96,6.61,7.24,7,7.24,7,0,0,.21,2.54,1.72,4.04,2.81,2.77,7.13,1.02,7.49-3.23.37-4.26-2.25-7.8-3.94-9.83Z"/>
      <path class="st5" d="M196.34,117.53s5.14,1.46,9.31,6.43c4.16,4.97,3.16,9.88,3.16,9.88,0,0,1.46,1.92,2.07,3.59.66,1.8-.23,2.64-.23,2.64,0,0,2.41-.23,2.9-3.81s-1.48-7.76-5.65-12.83c-4.16-5.07-8.51-7.53-11.56-5.9Z"/>
    </g>
    <g>
      <path class="st18" d="M218.19,130.64c-2.27-2.72-7.11-7.86-11.17-8.73s-3.3,4.15-1.34,10.76c1.96,6.61,7.24,7,7.24,7,0,0,.21,2.54,1.72,4.04,2.81,2.77,7.13,1.02,7.49-3.23.37-4.26-2.25-7.8-3.95-9.83Z"/>
      <path class="st5" d="M204.98,122.19s5.14,1.46,9.31,6.43c4.17,4.97,3.16,9.88,3.16,9.88,0,0,1.46,1.92,2.07,3.59.66,1.8-.23,2.64-.23,2.64,0,0,2.41-.23,2.9-3.81.49-3.58-1.48-7.76-5.65-12.83-4.17-5.07-8.51-7.53-11.56-5.9Z"/>
    </g>
  </g>
  <path class="st22" d="M267.82,3.2c9.91,0,17.95,6.63,17.95,14.81,0,4.24-2.17,8.05-5.63,10.75l2.86,9.48-9.38-6.23c-1.82.51-3.77.81-5.8.81-9.91,0-17.95-6.63-17.95-14.81,0-8.18,8.04-14.81,17.95-14.81Z"/>
  <path class="st22" d="M145.12,17.37c-9.91,0-17.95,6.63-17.95,14.81,0,4.24,2.17,8.05,5.63,10.75l-2.86,9.48,9.38-6.23c1.82.51,3.77.81,5.8.81,9.91,0,17.95-6.63,17.95-14.81s-8.04-14.81-17.95-14.81Z"/>
  <g>
    <g>
      <path class="st18" d="M56.12,152.05H23.69s.44,9.64,1.93,17.8c.01.07.04.12.06.19.56,4.43,6.71,7.91,14.23,7.91s13.67-3.49,14.23-7.91c.01-.07.04-.12.06-.19,1.49-8.16,1.93-17.8,1.93-17.8Z"/>
      <path class="st5" d="M39.91,142.32c8.96,0,16.22,4.35,16.22,9.73s-7.26,9.73-16.21,9.73-16.22-4.35-16.22-9.73c0-5.37,7.26-9.73,16.21-9.73Z"/>
      <path class="st18" d="M39.91,143.18c8.17,0,14.79,3.97,14.79,8.87s-6.62,8.87-14.79,8.87-14.79-3.97-14.79-8.87,6.62-8.87,14.79-8.87Z"/>
    </g>
    <path class="st20" d="M41.56,98.88c-.82-1.86-2.63-1.35-4.14-.38.63-1.43.75-3.15.54-4.65-.17-1.2-.51-3.02-2.07-2.98-.91.02-1.68.79-2.18,1.78-.82-1.95-2.19-3.92-3.75-3-.95.56-.83,1.81-.36,2.65.46.83,1.14,1.57,1.72,2.32.19.24.39.5.58.75-.66-.3-1.36-.54-2.04-.69-1.02-.24-3.01-.76-3.67.4-.94,1.65,1.55,2.85,3.83,3.41-1.16.37-2.26.99-3.14,1.73-.26.22-.14.62.1.78,1.11.76,2.35,1.16,3.63,1.55.65.2,1.31.39,1.93.67.1.05.2.11.3.16-.46.16-.92.37-1.37.71-.67.49-1.39,1.24-.71,2.05.6.71,1.79.89,2.65.98,1.39.15,2.55.05,3.68.99.22.18.44.18.64.1.08.1.19.19.34.23,1.5.34,2.8-1.43,2.9-2.8.04-.6-.25-1.17-.68-1.46.43-.65.76-1.4,1.04-2.03.43-.99.7-2.2.25-3.23Z"/>
    <path class="st20" d="M23.9,113.94c-1.78-.99-2.91.51-3.53,2.2-.36-1.52-1.31-2.96-2.38-4.04-.85-.85-2.23-2.1-3.45-1.13-.71.57-.87,1.64-.66,2.73-1.83-1.07-4.11-1.8-4.8-.12-.42,1.02.43,1.94,1.31,2.33.87.38,1.86.57,2.77.81.3.08.61.16.91.25-.71.16-1.41.4-2.05.68-.96.43-2.86,1.21-2.68,2.54.25,1.89,2.96,1.33,5.11.41-.7.99-1.2,2.15-1.46,3.27-.08.34.26.58.55.56,1.34-.06,2.57-.49,3.83-.96.64-.24,1.28-.48,1.94-.63.11-.03.22-.03.33-.05-.27.41-.51.85-.67,1.39-.24.8-.36,1.82.67,2.06.91.21,1.97-.38,2.7-.82,1.2-.72,2.06-1.5,3.53-1.43.29.01.46-.13.57-.3.13.04.27.04.41-.02,1.4-.63,1.37-2.83.62-3.98-.32-.5-.9-.78-1.43-.76-.04-.78-.23-1.57-.4-2.25-.25-1.04-.77-2.18-1.75-2.73Z"/>
    <path class="st13" d="M44.1,80.83c.5-4.55.38-13.14,1.39-22.04.88-7.76,2.89-16,3.6-18.86.04-.16-.19-.22-.25-.07-2.95,7.89-5.94,19.18-6.15,25.47-1.49-3.14-2.47-5.91-3.14-8.75-1.36-5.78-1.78-10.32-2.82-15.17-.64-3.02-.66-6.12-.51-9.22-.83.72-1.22,6.65-1.09,7.83.81,7.01,1.52,14.05,3.46,20.71,1.32,4.51,3.93,8.62,2.6,19.29-1.25,10.1-7,32.75-7.74,42.91-.35,4.76-.09,9.48.83,14.16,1.08,5.48,1.72,11.88,1.19,17.41-.25,2.65,7.39,3.24,7.64,1.09.25-12.17-2.65-15.25-4.25-23.78-.9-4.79-.95-13.47,2.33-28.7,1.54-7.18,2.1-15.03,2.9-22.28Z"/>
    <path class="st13" d="M49.66,57.59c-.56,4.18-1.1,8.34-1.58,12.52-.67,5.82-2.74,9.86-6.67,14.23-.15.17.07.39.25.25,7.97-6.41,7.38-17.76,8.04-27.01,0-.02-.03-.02-.03,0Z"/>
    <path class="st13" d="M25.83,100.42c.64,4.79,1.26,9.55,1.81,14.35.77,6.67,3.14,11.3,7.65,16.31.18.2-.08.44-.28.28-9.14-7.35-8.46-20.35-9.21-30.94,0-.02.03-.02.04,0Z"/>
    <path class="st13" d="M38.17,106.77c-2.52-1.29-4.96-2.78-5.5-5.16-1.51-6.68.67-15.47-1.17-23.13-.02-.08-.14-.06-.14.02.09,5.1.04,10.01-.3,15.1-.11,1.61-.16,3.15-.05,4.66-.93-2.33-1.62-4.84-2.44-7.34-1.27-3.89-1.84-9.39-5.15-12.15-.08-.07-1.06-.34-.42.42,6.36,7.55,2.36,25.89,14.91,28.21.36.07.63-.44.26-.63Z"/>
    <path class="st13" d="M37.68,126.97c2.52-1.29,4.96-2.78,5.5-5.16,1.51-6.68-.67-15.47,1.17-23.13.02-.08.14-.06.14.02-.09,5.1-.04,10.01.3,15.1.11,1.61.16,3.15.05,4.66.93-2.33,1.62-4.84,2.44-7.34,1.27-3.89,1.84-9.39,5.15-12.15.08-.07,1.06-.34.42.42-6.36,7.55-2.36,25.89-14.91,28.21-.36.07-.63-.44-.26-.63Z"/>
    <path class="st14" d="M39.54,31.65c-.16-1.42-1.52-2.76-2.97-1.94-.17.09-.28.23-.42.35.08-1.78,0-3.61.06-5.28,0-.28-.26-.57-.55-.55-1.49.09-2.59,1.43-2.9,2.9-.44-.75-.88-1.51-1.33-2.26-.54-.89-1.12-2.4-1.9-3.07-.92-.8-2.01-.3-2.35.84-.39,1.3.43,2.69,1.24,3.64.71.83,1.48,1.6,2.24,2.39-2.31-.54-4.89-.51-4.94,1.89-.03,1.24,1,1.71,2.08,1.84.74.09,1.55.19,2.38.29-.87.4-1.47,1.09-1.52,2.2-.05,1.26,1.12,1.69,2.19,1.64,1.04-.04,2.15-.4,3.16-.6.6-.12,1.21-.23,1.81-.35.41.61.95,1.1,1.59,1.39-.05.4-.07.8.03,1.2.05.19.33.28.47.12.81-.94.88-2.27,1.15-3.45.24-1.02.61-2.13.49-3.18Z"/>
    <path class="st14" d="M50.13,50.12c1-1.02,2.19-.1,2.92,1.1.3-1.24.71-2.49,2.06-2.61.43-.04.85.13,1.15.41.04-2.36.83-7.11,3.17-5.61.94.6,1.19,1.67,1.06,2.82,1.66-2.31,3.82-4.18,6.77-4.83.14-.03.32,0,.42.11,1.09,1.32-1.07,2.49-1.97,3.18-.92.7-1.93,1.51-2.99,2.27.73-.17,1.47-.31,2.18-.4,1.06-.14,3.26-.59,3.79.82.39,1.05-.44,1.49-1.3,1.62-1.36.22-2.74.29-4.1.54.89.12,1.56.53,1.72,1.41.26,1.39-1.36,1.65-2.34,1.89-1.21.29-2.5.5-3.76.46.21.06.43.11.64.17.56.17.5.89,0,1.07-1.72.65-3.43,1.33-5.16,1.96-.78.28-1.56.53-2.32.43-.03,0-.07,0-.1,0-.04,0-.07-.01-.11-.02-.02,0-.04-.01-.07-.03-.23-.06-.46-.13-.7-.27-.25-.15-.22-.44-.04-.6-.6-.85-1.03-1.78-1.23-2.82-.17-.86-.39-2.38.3-3.08Z"/>
    <path class="st14" d="M41.66,116.07c.16-1.42,1.52-2.76,2.97-1.95.17.1.28.23.42.35-.08-1.78,0-3.61-.06-5.28,0-.28.26-.57.55-.55,1.49.09,2.59,1.43,2.9,2.9.44-.76.88-1.51,1.33-2.26.54-.89,1.12-2.4,1.9-3.07.92-.8,2.01-.3,2.35.84.39,1.3-.43,2.69-1.24,3.64-.71.84-1.48,1.6-2.24,2.38,2.31-.54,4.89-.51,4.94,1.89.03,1.24-1,1.71-2.08,1.84-.74.09-1.55.2-2.38.29.87.4,1.47,1.09,1.52,2.2.05,1.26-1.12,1.69-2.19,1.64-1.04-.04-2.15-.4-3.16-.6-.6-.12-1.21-.23-1.81-.35-.41.62-.95,1.1-1.59,1.39.05.4.07.8-.03,1.2-.05.19-.33.28-.46.12-.81-.94-.88-2.27-1.15-3.45-.24-1.01-.61-2.12-.5-3.18Z"/>
    <path class="st19" d="M43.43,40.36c-1.18-.53-2.52-.14-3.51.66.13-.48.25-.96.36-1.44.12-.57.21-1.25-.38-1.59-.56-.32-.99-.02-1.3.47-.11-.5-.29-1-.49-1.45-.23-.52-.6-1.46-1.33-1.41-1.1.08-1.11,1.71-.83,2.81-.12-.05-.23-.11-.35-.14-1.13-.29-2.28.17-3.09.96-.34.33-.13.8.25.96,1.02.42,2.06.82,3.07,1.28.12.06.24.13.36.2-1.03.23-2,.89-1.98,1.9.02.73.61,1.15,1.27,1.31.47.12.98.12,1.46.16.48.04.97.11,1.44.08-.35.89-.43,1.99.02,2.7.74,1.16,2.37.49,3.29-.06,1.11-.67,1.68-1.99.9-3.14-.24-.35-.6-.71-1.02-1,1.41-.83,3.39-2.57,1.85-3.26Z"/>
    <path class="st14" d="M46.61,69.03c1.18-.53,2.52-.13,3.51.66-.13-.48-.25-.96-.36-1.44-.12-.57-.21-1.25.38-1.59.56-.32.99-.02,1.3.47.11-.51.29-1,.49-1.45.23-.52.6-1.46,1.33-1.41,1.1.08,1.11,1.71.83,2.81.12-.05.23-.11.35-.14,1.13-.29,2.28.17,3.09.96.34.33.13.8-.25.96-1.02.42-2.06.82-3.07,1.28-.12.05-.24.13-.36.2,1.03.23,2,.89,1.98,1.9-.02.73-.61,1.15-1.27,1.31-.47.12-.98.12-1.46.16-.48.04-.97.11-1.44.08.35.89.43,1.99-.02,2.7-.74,1.16-2.37.49-3.29-.06-1.11-.67-1.68-1.99-.9-3.14.24-.35.6-.71,1.02-1-1.41-.83-3.4-2.57-1.85-3.26Z"/>
    <path class="st19" d="M45.17,116.09c-1.18-.53-2.52-.13-3.51.66.13-.48.25-.96.36-1.44.12-.57.21-1.25-.38-1.59-.56-.32-.99-.02-1.3.47-.11-.5-.29-1-.49-1.45-.23-.52-.6-1.46-1.33-1.41-1.1.08-1.11,1.71-.83,2.81-.12-.05-.23-.11-.35-.14-1.13-.29-2.28.17-3.09.96-.34.33-.13.8.25.96,1.02.42,2.06.82,3.07,1.28.12.05.24.13.36.2-1.03.23-2,.89-1.98,1.9.02.73.61,1.15,1.27,1.31.47.12.98.12,1.46.16.48.04.97.11,1.44.08-.35.89-.43,1.99.02,2.7.74,1.16,2.37.49,3.29-.06,1.11-.67,1.68-1.99.9-3.14-.24-.35-.6-.71-1.02-1,1.41-.83,3.4-2.57,1.85-3.26Z"/>
    <path class="st14" d="M27.15,75.73c-1.28.2-2.18,1.26-2.58,2.47-.15-.47-.31-.94-.48-1.4-.21-.55-.5-1.16-1.19-1.12-.65.04-.85.52-.83,1.1-.37-.36-.79-.68-1.2-.95-.47-.31-1.3-.9-1.88-.46-.88.66,0,2.04.84,2.81-.12.02-.25.04-.37.07-1.11.38-1.82,1.39-2.06,2.49-.1.46.33.74.74.66,1.09-.2,2.18-.44,3.27-.6.13-.02.27-.03.41-.03-.74.76-1.19,1.84-.62,2.67.41.6,1.14.62,1.78.4.46-.16.88-.43,1.31-.66.43-.23.87-.43,1.25-.72.19.93.72,1.9,1.49,2.26,1.25.57,2.25-.89,2.72-1.85.56-1.17.32-2.59-.96-3.12-.39-.16-.89-.26-1.4-.28.73-1.46,1.45-4-.22-3.74Z"/>
    <path class="st14" d="M32.79,41.94c-1.28.2-2.18,1.26-2.58,2.47-.15-.47-.31-.94-.48-1.4-.21-.55-.5-1.16-1.19-1.12-.64.04-.85.52-.83,1.1-.37-.36-.79-.68-1.2-.95-.47-.31-1.3-.9-1.89-.46-.88.66,0,2.04.84,2.81-.12.02-.25.04-.37.07-1.11.38-1.82,1.39-2.06,2.49-.1.46.33.74.74.67,1.09-.2,2.18-.44,3.27-.6.13-.02.27-.03.41-.03-.74.76-1.19,1.84-.62,2.67.41.6,1.14.62,1.78.4.46-.16.88-.43,1.31-.66.43-.23.87-.43,1.25-.72.19.93.72,1.9,1.49,2.25,1.25.57,2.25-.89,2.72-1.85.56-1.17.32-2.59-.96-3.12-.39-.16-.89-.26-1.4-.28.73-1.46,1.45-4-.23-3.74Z"/>
    <path class="st14" d="M28.57,110c-1.28.2-2.18,1.26-2.58,2.47-.15-.47-.31-.94-.48-1.4-.21-.55-.5-1.16-1.19-1.12-.65.04-.85.52-.83,1.1-.37-.36-.79-.68-1.2-.95-.47-.31-1.3-.9-1.88-.46-.88.66,0,2.04.84,2.81-.12.02-.25.04-.37.07-1.11.38-1.82,1.39-2.06,2.49-.1.46.33.74.74.66,1.09-.2,2.18-.44,3.27-.6.13-.02.27-.03.41-.03-.74.76-1.19,1.84-.62,2.67.41.6,1.14.62,1.78.4.46-.16.88-.43,1.31-.66.43-.23.87-.43,1.25-.72.19.93.72,1.9,1.49,2.26,1.25.57,2.25-.89,2.72-1.85.56-1.17.32-2.59-.96-3.12-.39-.16-.89-.26-1.4-.28.72-1.46,1.44-4-.23-3.74Z"/>
    <path class="st14" d="M36.11,101.78c1.28.2,2.18,1.26,2.58,2.47.15-.47.31-.94.48-1.4.21-.55.5-1.16,1.19-1.12.64.04.85.52.83,1.1.37-.36.79-.68,1.2-.95.47-.31,1.3-.9,1.89-.46.88.66,0,2.04-.84,2.81.12.02.25.04.37.07,1.11.38,1.82,1.39,2.06,2.49.1.46-.33.74-.74.66-1.09-.2-2.18-.43-3.27-.6-.13-.02-.27-.03-.41-.03.74.76,1.19,1.84.62,2.67-.41.6-1.14.62-1.78.4-.46-.16-.88-.43-1.31-.66-.43-.23-.87-.43-1.25-.72-.19.93-.72,1.9-1.49,2.26-1.25.57-2.25-.89-2.72-1.85-.56-1.17-.32-2.59.96-3.12.39-.16.89-.26,1.4-.28-.73-1.46-1.45-4,.23-3.74Z"/>
    <path class="st14" d="M55.96,37.37c-.67-.73-2.38-.25-3.14.03-.29.11-.59.25-.87.4.25-.47.5-.95.68-1.44.24-.64.09-1.31-.71-1.37-.82-.07-1.68.88-2.12,1.46-.5.65-.81,1.37-.95,2.15-.82-1.26-2.34-2.85-3.35-1.62-.5.61-.05,1.28.45,1.69.65.53,1.47,1.11,2.3,1.5-1.28.2-2.85.77-2.42,1.87.23.58,1.09.66,1.61.71.57.06,1.31.08,1.86-.19-.2,1.82.61,4.79,2.3,3.26.77-.7,1.85-1.27,1.39-2.49-.09-.22-.23-.44-.39-.64.9-.03,2.24-.17,2.72-.93.41-.65-.06-1.19-.63-1.49-.05-.23-.2-.44-.51-.43-.05,0-.1,0-.15,0,1.41-.74,2.61-1.7,1.93-2.44Z"/>
    <path class="st19" d="M57.13,53.49c-.53-1.14-2.23-.9-3.15-.63-.97.29-1.96.65-2.9,1.08.58-.88,1.05-1.81,1.04-2.86,0-.32-.33-.47-.6-.34-.96.48-1.66,1.26-2.02,2.19-.24-1.25-.81-2.52-1.33-3.57-.17-.34-.61-.19-.72.09-.34.85-.43,1.78-.25,2.65-1.07-1.12-3.03-2.7-4.13-1.49-.59.65-.05,1.32.54,1.7.41.26.88.57,1.37.86-.25,0-.51,0-.79.04-1.06.15-2.42.7-3.05,1.64-.72,1.08.47,1.52,1.37,1.54.65.01,1.37-.04,2.09-.14-1.13.78-2.03,1.9-2,3.15,0,.29.23.47.5.5,1.03.12,1.99-.83,2.78-1.36.49-.32,1.01-.62,1.5-.96-.23.75-.17,1.62-.03,2.44.15.87.62,3.35,1.88,3.24,1.18-.1,1.8-1.9,1.9-2.86.05-.55-.03-1.18-.17-1.81.13.12.25.24.39.35.75.58,2.55,1.88,3.43.8.8-1-.17-2.58-.92-3.27-.27-.25-.58-.45-.89-.64.81-.16,1.61-.37,2.29-.52.82-.18,2.44-.59,1.86-1.83Z"/>
    <path class="st19" d="M34.03,120.23c-.53-1.14-2.23-.9-3.15-.63-.97.29-1.96.65-2.9,1.08.58-.88,1.05-1.81,1.04-2.86,0-.32-.33-.47-.6-.34-.96.48-1.66,1.26-2.02,2.19-.24-1.25-.81-2.52-1.33-3.57-.17-.34-.61-.19-.72.1-.34.85-.43,1.78-.25,2.65-1.07-1.12-3.03-2.7-4.13-1.49-.59.65-.05,1.32.54,1.7.41.26.88.57,1.37.86-.25,0-.51,0-.79.04-1.06.15-2.42.7-3.05,1.64-.72,1.08.47,1.52,1.37,1.54.65.01,1.37-.04,2.09-.14-1.13.78-2.03,1.9-2,3.15,0,.29.23.47.5.5,1.03.12,1.99-.83,2.78-1.36.49-.32,1.01-.62,1.51-.96-.23.75-.17,1.62-.03,2.44.15.87.62,3.35,1.88,3.24,1.18-.1,1.8-1.9,1.9-2.86.05-.55-.03-1.18-.17-1.81.13.12.25.24.39.35.75.59,2.55,1.88,3.43.8.8-1-.17-2.58-.92-3.27-.27-.25-.58-.45-.89-.64.81-.16,1.61-.37,2.29-.52.82-.19,2.44-.59,1.86-1.83Z"/>
    <path class="st19" d="M38.52,60.84c-1-1.02-2.19-.1-2.92,1.1-.3-1.24-.71-2.49-2.06-2.61-.43-.04-.85.13-1.15.41-.04-2.36-.83-7.11-3.17-5.61-.94.6-1.19,1.67-1.06,2.82-1.66-2.31-3.82-4.18-6.77-4.83-.14-.03-.32,0-.42.11-1.09,1.32,1.07,2.49,1.97,3.18.92.7,1.93,1.51,2.98,2.27-.73-.17-1.47-.31-2.18-.4-1.06-.14-3.26-.59-3.79.82-.39,1.05.44,1.49,1.3,1.62,1.37.22,2.74.29,4.1.54-.89.12-1.56.53-1.72,1.41-.26,1.39,1.36,1.65,2.34,1.89,1.21.29,2.5.51,3.76.46-.21.06-.43.11-.64.17-.56.17-.5.89,0,1.07,1.72.65,3.43,1.33,5.16,1.96.78.28,1.56.53,2.32.43.03,0,.07,0,.1,0,.04,0,.07-.01.11-.02.02,0,.04-.01.07-.03.23-.05.46-.13.7-.27.25-.15.22-.44.04-.6.6-.85,1.03-1.78,1.23-2.82.17-.86.39-2.38-.3-3.08Z"/>
    <path class="st19" d="M37.81,78.55c1.23-.72,2.3-2.06,1.79-2.98-.47-.85-1.79-.92-2.64-.74-.57.12-1.09.38-1.54.73-.13-.94-.54-1.84-1.16-2.56-.86-1.01-2.68-2.4-4.09-2.45-1.42-.05-1.13,1.42-.82,2.35.1.32.24.62.38.91-1.13-.49-2.31-.88-3.36-1.19-1.53-.45-3.34-.65-4.22.93-.15.27-.06.59.2.76,2.45,1.61,5.5,2.24,8.44,2.92-2.39.36-6.45.75-6.49,2.91-.03,1.8,5.45-.04,8.35.61-3.22,2.63-2.69,2.97-.97,4.21,1.97,1.42,5.92-.47,5.07-2.94,2.82-.26,2.41-2.28,1.06-3.46Z"/>
    <path class="st19" d="M26.94,103.28c.97-.19,2.48-.87,2.39-2.11-.11-1.46-2.47-1.53-3.45-1.67-.28-.04-.58-.07-.88-.1.14-.08.29-.15.42-.24.85-.63.75-1.7-.23-2.12-1.76-.75-4.33.14-5.56,1.74-1.21-1.64-3.38-2.61-5.35-2.68-.31,0-.61.28-.6.6.05.98.3,1.9.75,2.7-1.15-.29-2.33-.37-3.58-.18-1.58.24-4.41,1.09-5.23,2.61-1.29,2.39,3.36,1.93,6.68,1.33-.13.11-.29.19-.41.32-.87.89-1.58,2.54-.91,3.73.76,1.38,2.23.49,3.14-.15,1.11-.79,2.43-1.61,3.55-2.57-.18,1.55.32,3.16.91,4.65.15.37.54.49.85.22,1.17-.99,1.78-2.91,1.63-4.66.55.49,1.14.93,1.73,1.32.87.57,3.02,2.24,4.05,1.16,1.16-1.23-.38-2.72-2.22-3.82.8.06,1.59.06,2.33-.09Z"/>
    <path class="st19" d="M43.5,123.96c-.97-.19-2.48-.87-2.39-2.11.11-1.46,2.47-1.53,3.45-1.67.28-.04.58-.07.88-.1-.14-.08-.29-.15-.42-.24-.85-.63-.75-1.7.23-2.12,1.76-.75,4.33.14,5.56,1.74,1.21-1.64,3.38-2.61,5.35-2.68.31,0,.61.28.6.6-.05.98-.3,1.9-.75,2.7,1.15-.29,2.33-.37,3.58-.18,1.57.24,4.41,1.09,5.23,2.61,1.29,2.39-3.36,1.93-6.68,1.33.13.11.29.19.41.32.87.89,1.57,2.54.91,3.73-.76,1.38-2.23.49-3.14-.15-1.11-.79-2.43-1.61-3.55-2.57.18,1.55-.32,3.16-.91,4.65-.14.37-.54.48-.85.22-1.17-.99-1.78-2.91-1.63-4.66-.55.49-1.14.93-1.73,1.32-.87.57-3.02,2.25-4.05,1.16-1.16-1.23.38-2.72,2.22-3.82-.8.06-1.59.06-2.33-.09Z"/>
    <path class="st14" d="M43.41,65.42c-.67-.73-2.38-.25-3.14.03-.29.11-.59.25-.87.4.25-.47.5-.95.68-1.44.24-.63.09-1.31-.71-1.37-.82-.07-1.68.88-2.12,1.46-.5.65-.81,1.37-.95,2.15-.82-1.26-2.34-2.85-3.34-1.62-.5.61-.05,1.28.45,1.69.65.53,1.47,1.12,2.3,1.49-1.28.2-2.85.77-2.42,1.87.23.58,1.09.66,1.61.71.57.06,1.31.08,1.86-.19-.2,1.82.61,4.79,2.3,3.26.77-.7,1.85-1.27,1.39-2.49-.09-.23-.23-.44-.39-.64.9-.03,2.24-.17,2.72-.93.41-.65-.06-1.19-.63-1.49-.05-.23-.2-.44-.51-.43-.05,0-.1,0-.15,0,1.41-.74,2.61-1.7,1.93-2.44Z"/>
    <path class="st14" d="M54.15,96.37c1.28.2,2.18,1.26,2.58,2.47.15-.47.31-.94.48-1.4.21-.55.5-1.16,1.19-1.12.64.04.85.52.83,1.1.37-.36.79-.68,1.2-.95.47-.31,1.3-.9,1.89-.46.88.66,0,2.04-.84,2.81.12.02.25.04.37.07,1.11.38,1.82,1.39,2.06,2.49.1.46-.33.74-.73.66-1.09-.2-2.18-.43-3.27-.6-.13-.02-.27-.03-.41-.03.74.76,1.19,1.84.62,2.67-.41.6-1.14.62-1.78.4-.46-.16-.88-.43-1.31-.66-.43-.23-.87-.43-1.25-.72-.19.93-.72,1.9-1.49,2.26-1.25.57-2.25-.89-2.72-1.85-.56-1.17-.32-2.59.96-3.12.39-.16.89-.26,1.4-.28-.73-1.46-1.44-4,.23-3.74Z"/>
    <path class="st19" d="M42.77,81.49c1-1.02,2.19-.1,2.92,1.1.3-1.24.71-2.49,2.06-2.61.43-.04.85.13,1.15.41.04-2.36.83-7.11,3.17-5.61.94.6,1.19,1.67,1.06,2.82,1.66-2.31,3.82-4.18,6.77-4.83.14-.03.32,0,.42.11,1.09,1.32-1.07,2.49-1.97,3.18-.92.7-1.93,1.51-2.99,2.27.73-.17,1.47-.31,2.18-.4,1.06-.14,3.26-.59,3.79.82.39,1.05-.44,1.49-1.3,1.62-1.36.22-2.74.29-4.1.54.89.12,1.56.53,1.72,1.41.26,1.39-1.36,1.65-2.34,1.89-1.21.29-2.5.5-3.76.46.21.05.43.11.64.17.56.17.5.88,0,1.07-1.72.65-3.43,1.33-5.16,1.96-.78.28-1.56.53-2.32.43-.03,0-.07,0-.1,0-.04,0-.07-.01-.11-.02-.02,0-.04-.01-.07-.03-.23-.05-.46-.13-.7-.27-.25-.15-.22-.44-.04-.6-.6-.85-1.03-1.78-1.23-2.82-.17-.86-.39-2.38.3-3.08Z"/>
    <path class="st19" d="M43.49,99.19c-1.23-.72-2.3-2.06-1.79-2.98.47-.85,1.79-.92,2.64-.74.57.12,1.09.38,1.54.73.13-.94.54-1.84,1.16-2.56.86-1.01,2.68-2.4,4.09-2.46,1.42-.05,1.13,1.42.82,2.35-.1.32-.24.62-.38.91,1.13-.49,2.31-.88,3.36-1.19,1.53-.45,3.34-.65,4.22.93.15.27.06.59-.2.76-2.45,1.61-5.5,2.24-8.44,2.92,2.39.36,6.45.75,6.49,2.91.03,1.8-5.45-.04-8.35.61,3.22,2.63,2.69,2.97.97,4.21-1.97,1.42-5.92-.47-5.07-2.94-2.82-.25-2.41-2.28-1.06-3.46Z"/>
    <path class="st14" d="M37.89,86.06c.67-.73,2.38-.25,3.14.03.29.11.59.25.87.4-.25-.47-.5-.95-.68-1.44-.24-.63-.09-1.31.71-1.37.82-.07,1.68.88,2.12,1.46.5.65.81,1.37.95,2.15.82-1.26,2.34-2.85,3.34-1.62.5.61.05,1.28-.45,1.69-.65.53-1.47,1.12-2.3,1.49,1.28.2,2.85.77,2.42,1.87-.23.58-1.09.66-1.61.71-.57.06-1.31.08-1.86-.19.2,1.82-.61,4.79-2.3,3.26-.77-.7-1.85-1.27-1.39-2.49.09-.23.23-.44.39-.64-.9-.03-2.24-.17-2.72-.93-.41-.65.06-1.19.63-1.49.05-.23.2-.44.51-.43.05,0,.1,0,.15,0-1.41-.74-2.61-1.69-1.93-2.44Z"/>
    <path class="st14" d="M19.88,92.89c.67-.73,2.38-.25,3.14.03.29.11.59.25.87.4-.25-.47-.5-.95-.68-1.44-.24-.63-.09-1.31.71-1.37.82-.07,1.68.88,2.12,1.46.5.65.81,1.37.95,2.15.82-1.26,2.34-2.85,3.34-1.62.5.61.05,1.28-.45,1.69-.65.53-1.47,1.12-2.3,1.49,1.28.2,2.85.77,2.42,1.87-.23.58-1.09.66-1.61.71-.57.06-1.31.08-1.86-.19.2,1.82-.61,4.79-2.3,3.26-.77-.7-1.85-1.27-1.39-2.49.09-.23.23-.44.39-.64-.9-.03-2.24-.17-2.72-.93-.41-.65.06-1.19.63-1.49.05-.23.2-.44.51-.43.05,0,.1,0,.15,0-1.41-.74-2.61-1.69-1.93-2.44Z"/>
  </g>
  <g>
    <path class="st18" d="M261.57,9.68c-.07-.47-.78-.5-.85,0-.27,2.01-.59,10.26.12,12.1.11.27.54.29.65.01.64-1.66.39-9.84.08-12.1Z"/>
    <path class="st18" d="M262.07,24.31c-.5-.5-1.53-.32-1.67.44-.01.06-.02.12-.03.17-.13.69.4,1.22,1.09,1.09.06-.01.12-.02.17-.03.76-.15.94-1.17.44-1.67Z"/>
  </g>
  <g>
    <path class="st18" d="M267.72,9.68c-.07-.47-.78-.5-.85,0-.27,2.01-.59,10.26.12,12.1.11.27.54.29.65.01.64-1.66.39-9.84.08-12.1Z"/>
    <path class="st18" d="M268.22,24.31c-.5-.5-1.53-.32-1.67.44-.01.06-.02.12-.03.17-.13.69.4,1.22,1.09,1.09.06-.01.12-.02.17-.03.76-.15.94-1.17.44-1.67Z"/>
  </g>
  <g>
    <path class="st18" d="M273.54,9.68c-.07-.47-.78-.5-.85,0-.27,2.01-.59,10.26.12,12.1.11.27.54.29.65.01.64-1.66.39-9.84.08-12.1Z"/>
    <path class="st18" d="M274.04,24.31c-.5-.5-1.53-.32-1.67.44-.01.06-.02.12-.03.17-.13.69.4,1.22,1.09,1.09.06-.01.12-.02.17-.03.76-.15.94-1.17.44-1.67Z"/>
  </g>
  <path class="st11" d="M154.5,26.94c-3.74-4.42-7.93.03-9.38,1.88-1.45-1.85-5.64-6.3-9.38-1.88-6.46,7.64,9.37,14.71,9.37,14.71v-.2s.02.2.02.2c0,0,15.83-7.08,9.37-14.71Z"/>
</svg>